<svg xmlns="http://www.w3.org/2000/svg" viewBox="180 145 360 300"><defs><mask id="noSail"><rect x="0" y="0" width="679" height="528" fill="white"></rect><path d="M 206 147 L 422 160 L 417 296 L 300 305 L 248 305 L 206 311 Z" fill="black"></path><path d="M 327 304 L 345 304 L 345 349 L 327 349 Z" fill="black"></path><path d="M 358 132 L 382 132 L 382 172 L 358 172 Z" fill="black"></path><path d="M 200 272 L 244 272 L 244 308 L 200 308 Z" fill="white"></path><path d="M 238 300 L 262 300 L 262 322 L 238 322 Z" fill="white"></path></mask></defs><path d="M390.405 330.46C405.421 328.42 428.68 316.855 439.195 305.257C461.971 280.135 435.683 267.3 434.889 241.148C434.616 232.158 437.504 224.373 443.525 217.922C440.738 214.788 440.207 212.686 439.321 208.66C443.244 210.762 445.615 212.075 449.874 213.405C449.296 211.458 448.074 208.23 448.81 206.436C450.051 206.093 451.527 207.378 452.395 208.179C457.221 212.632 460.527 212.458 466.446 214.131C470.694 215.331 472.042 216.994 473.904 220.853C476.455 226.206 481.831 226.564 486.83 227.975C492.016 229.438 485.558 237.928 482.588 239.182C481.01 238.61 482.134 237.306 480.056 235.983C479.227 236.219 478.712 236.427 477.912 236.754C476.395 236.348 476.798 235.45 475.828 234.618C474.043 233.087 469.587 232.587 467.832 234.378L467.85 235.107C469.491 237.355 473.517 238.87 476.239 238.196C477.094 239.138 476.717 239.405 476.809 241.081L477.388 241.391C478.749 241.102 478.946 241.009 480.296 241.154C482.551 242.949 477.552 247.455 475.439 247.289C473.737 247.155 472.645 245.849 471.533 244.716C467.824 240.936 463.705 240.225 458.594 240.77C453.495 241.037 451.426 239.937 447.868 236.523C447.666 251.786 461.599 264.442 469.155 276.964C485.752 304.469 483.052 336.049 460.069 359.193C458.241 361.184 454.794 359.353 452.21 358.675C423.831 351.235 394.884 356.318 367.603 365.661C360.666 368.038 351.613 371.404 344.246 372.421C329.769 372.123 315.716 366.204 300.862 365.569C294.092 365.222 287.305 365.382 280.558 366.047C275.613 366.584 264.993 369.421 260.919 368.648C255.723 367.662 247.315 364.4 241.818 362.643C231.574 359.369 225.712 358.707 215.269 357.813C213.779 356.569 212.387 355.213 211.105 353.755C200.026 341.154 199.423 325.183 205.928 310.226C208.298 304.777 215.383 293.243 210.579 288.013C209.504 287.773 210.045 287.731 208.932 288.37C208.702 290.515 208.587 292.977 206.655 294.251C202.014 294.485 200.262 287.867 203.069 284.107C204.348 282.423 206.258 281.334 208.359 281.089C210.668 280.804 213.56 281.522 215.268 283.076C223.636 290.802 217.078 302.678 215.302 311.766C213.5 320.99 216.125 327.705 223.537 333.237" fill="none" stroke="#C9A961" stroke-width="3.8" stroke-linejoin="round" stroke-linecap="round"></path><path fill-rule="evenodd" d="M312.412 144.347C313.377 144.445 313.396 144.397 314.274 144.896C315.205 146.368 316.313 166.778 316.714 170.867C339.173 174.597 361.809 177.709 384.271 181.419C385.424 181.609 386.185 181.965 386.98 182.809C387.593 184.324 386.583 186.018 386.955 186.533C389.749 190.399 393.376 193.62 396.378 197.364C409.057 213.181 416.767 232.397 418.536 252.589C420.339 274.084 414.812 296.79 402.985 314.941C399.086 320.927 394.969 325.065 390.405 330.46C405.421 328.42 428.68 316.855 439.195 305.257C461.971 280.135 435.683 267.3 434.889 241.148C434.616 232.158 437.504 224.373 443.525 217.922C440.738 214.788 440.207 212.686 439.321 208.66C443.244 210.762 445.615 212.075 449.874 213.405C449.296 211.458 448.074 208.23 448.81 206.436C450.051 206.093 451.527 207.378 452.395 208.179C457.221 212.632 460.527 212.458 466.446 214.131C470.694 215.331 472.042 216.994 473.904 220.853C476.455 226.206 481.831 226.564 486.83 227.975C492.016 229.438 485.558 237.928 482.588 239.182C481.01 238.61 482.134 237.306 480.056 235.983C479.227 236.219 478.712 236.427 477.912 236.754C476.395 236.348 476.798 235.45 475.828 234.618C474.043 233.087 469.587 232.587 467.832 234.378L467.85 235.107C469.491 237.355 473.517 238.87 476.239 238.196C477.094 239.138 476.717 239.405 476.809 241.081L477.388 241.391C478.749 241.102 478.946 241.009 480.296 241.154C482.551 242.949 477.552 247.455 475.439 247.289C473.737 247.155 472.645 245.849 471.533 244.716C467.824 240.936 463.705 240.225 458.594 240.77C453.495 241.037 451.426 239.937 447.868 236.523C447.666 251.786 461.599 264.442 469.155 276.964C485.752 304.469 483.052 336.049 460.069 359.193C458.241 361.184 454.794 359.353 452.21 358.675C423.831 351.235 394.884 356.318 367.603 365.661C360.666 368.038 351.613 371.404 344.246 372.421C329.769 372.123 315.716 366.204 300.862 365.569C294.092 365.222 287.305 365.382 280.558 366.047C275.613 366.584 264.993 369.421 260.919 368.648C255.723 367.662 247.315 364.4 241.818 362.643C231.574 359.369 225.712 358.707 215.269 357.813C213.779 356.569 212.387 355.213 211.105 353.755C200.026 341.154 199.423 325.183 205.928 310.226C208.298 304.777 215.383 293.243 210.579 288.013C209.504 287.773 210.045 287.731 208.932 288.37C208.702 290.515 208.587 292.977 206.655 294.251C202.014 294.485 200.262 287.867 203.069 284.107C204.348 282.423 206.258 281.334 208.359 281.089C210.668 280.804 213.56 281.522 215.268 283.076C223.636 290.802 217.078 302.678 215.302 311.766C213.5 320.99 216.125 327.705 223.537 333.237C227.009 330.86 232.256 326.668 235.52 323.972C237.779 322.107 240.967 315.316 242.306 312.46C250.763 294.825 255.169 275.523 255.2 255.966C255.343 227.86 246.803 201.035 231.221 177.762C227.797 172.647 223.468 166.27 219.136 161.898C216.252 161.423 206.374 160.771 210.308 155.71C211.213 155.187 211.952 154.965 213.019 155.15C217.555 155.934 222.211 156.566 226.765 157.257L256.36 161.744L290.159 166.893C296.848 167.895 304.408 168.814 310.953 170.082C311.091 165.957 311.439 147.084 312.412 144.347Z M339.414 304.423C355.3 303.589 376.511 304.905 391.349 311.405C398.438 314.51 392.486 322.873 389.69 327.014C387.372 323.377 383.899 320.965 379.565 320.472C376.116 320.087 372.659 321.116 369.984 323.325C366.595 326.126 365.625 329.248 365.203 333.423L365.08 334.558C364.027 335.669 358.438 335.993 356.658 336.221C356.036 333.583 355.513 331.738 353.896 329.557C351.985 326.932 349.094 325.19 345.88 324.728C342.523 324.278 339.127 325.209 336.469 327.308C332.44 330.477 331.717 334.26 331.159 338.955C328.435 339.178 325.708 339.373 322.979 339.541C320.903 330.613 321.447 315.316 321.341 305.602C326.209 304.949 334.496 304.61 339.414 304.423Z M311.871 306.716C312.367 306.712 312.117 306.678 312.627 307.075C312.9 313.235 312.626 321.38 312.596 327.69C303.472 328.411 298.978 331.523 298.401 341.274L290.79 341.457C290.166 338.611 289.656 336.385 287.84 334.027C285.998 331.586 283.23 330.012 280.189 329.678C277.264 329.348 274.332 330.236 272.084 332.135C269.106 334.607 268.173 337.882 267.824 341.541L261.456 341.356C259.584 332.55 252.105 327.072 244.288 333.531C242.407 335.63 241.954 337.368 241.068 340.006C235.848 339.007 231.603 337.826 226.846 335.386C235.336 328.294 239.86 325.791 250.226 321.992C269.506 314.926 291.305 308.431 311.871 306.716Z"></path><path fill="white" d="M227.033 162.589C263.39 167.62 299.682 173.422 335.972 178.926C342.664 179.941 375.415 184.174 378.912 186.008C381.766 187.503 384.334 191.08 386.386 193.512C396.758 205.796 404.964 219.273 409.418 234.822C417.011 261.333 412.723 286.54 399.532 310.393C395.065 307.102 392.338 305.819 387.281 303.889C358.886 294.46 311.52 298.848 282.668 305.625C270.445 308.496 259.155 312.246 247.473 316.677C254.517 302.706 259.078 287.617 260.952 272.084C264.367 243.046 259.404 214.85 245.269 189.043C239.789 179.039 234.017 171.434 227.033 162.589Z"></path><path fill="white" d="M452.503 262.138C454.283 263.611 457.265 268.04 458.686 270.02C466.111 280.368 472.453 291.982 473.542 304.953C474.966 321.925 470.847 334.938 460.072 348.028C459.505 348.703 459.35 349.167 458.685 349.29C459.646 347.182 461.009 345.319 462.123 343.277C463.65 340.478 464.869 337.666 465.973 334.687C472.872 316.07 470.641 297.093 462.019 279.484C459.312 273.958 455.033 267.716 452.666 262.501L452.503 262.138Z"></path><path fill="white" d="M461.075 296.559C461.845 299.958 457.538 309.43 455.749 312.398C445.367 329.629 425.815 338.773 407.172 343.734L407.162 343.662C407.629 343.119 407.429 343.263 408.137 343.001C425.961 336.412 443.183 325.603 453.965 309.629C456.835 305.375 458.807 301.196 461.075 296.559Z"></path><path fill="white" d="M462.111 316.149L462.415 316.695C462.154 318.114 461.647 319.05 461.12 320.35C455.262 334.807 441.761 342.173 427.863 347.122L427.648 346.958C427.665 346.925 438.951 340.189 440.383 339.187C449.547 332.777 455.988 325.433 462.111 316.149Z"></path><path fill="#C9A961" d="M376.75 329.301C379.582 328.37 382.632 329.911 383.561 332.742C384.491 335.573 382.949 338.622 380.118 339.551C377.287 340.48 374.238 338.939 373.309 336.108C372.379 333.278 373.92 330.231 376.75 329.301Z"></path><path fill="#C9A961" d="M342.833 333.604C344.627 333.211 346.492 333.828 347.696 335.213C348.901 336.598 349.254 338.53 348.617 340.251C347.979 341.972 346.453 343.208 344.637 343.475C341.96 343.868 339.453 342.07 338.967 339.41C338.481 336.749 340.191 334.182 342.833 333.604Z"></path><path fill="#C9A961" d="M309.419 336.607C311.932 335.89 314.555 337.325 315.305 339.828C316.056 342.33 314.655 344.971 312.162 345.754C310.519 346.27 308.727 345.862 307.469 344.687C306.211 343.512 305.683 341.751 306.087 340.079C306.491 338.406 307.764 337.079 309.419 336.607Z"></path><path fill="#C9A961" d="M277.761 338.305C279.282 337.882 280.914 338.313 282.028 339.432C283.142 340.55 283.567 342.183 283.138 343.702C282.709 345.222 281.494 346.392 279.959 346.763C277.64 347.324 275.3 345.923 274.7 343.615C274.1 341.306 275.462 338.943 277.761 338.305Z"></path><path fill="#C9A961" d="M249.82 338.695C251.851 338.112 253.979 339.246 254.628 341.257C255.277 343.268 254.212 345.431 252.223 346.144C250.877 346.627 249.375 346.338 248.305 345.391C247.234 344.444 246.765 342.989 247.08 341.595C247.396 340.201 248.446 339.089 249.82 338.695Z"></path><path d="M420.437 361.751C440.937 361.152 459.771 364.505 478.449 373.138C481.581 374.585 486.91 377.061 489.579 379.108C482.413 376.717 470.111 374.921 462.627 373.981C440.635 371.22 417.782 372.963 396.367 378.707C379.091 383.341 362.799 388.554 344.928 391.277C322.902 394.949 293.482 395.164 272.283 387.179C298.475 388.754 318.227 387.053 343.601 379.856C369.701 372.453 392.992 363.248 420.437 361.751Z"></path><path d="M288.983 371.046C305.485 370.843 316.798 373.923 332.814 376.544C321.211 379.786 309.897 382.193 297.816 381.833C290.449 381.614 283.199 380.955 275.83 381.121C268.409 381.288 261.423 382.78 254.027 383.351C239.452 385.605 224.537 383.452 211.196 377.168C217.813 378.058 223.319 378.582 230.007 378.392C245.09 377.965 259.279 374.278 274.096 372.07C278.976 371.343 284.047 371.19 288.983 371.046Z"></path><path d="M205.56 362.41C215.174 361.255 228.243 363.699 237.381 366.587C241.82 367.991 246.849 369.876 251.346 370.783C242.527 372.603 235.509 374.401 226.609 372.427C209.278 367.788 198.304 367.309 180.233 369.078C187.795 365.306 197.157 363.119 205.56 362.41Z"></path><path d="M462.131 219.818C463.69 220.182 467.103 221.315 467.89 222.853C468.107 223.277 467.725 223.896 467.548 224.364C463.185 226.212 462.396 223.508 462.131 219.818Z" fill="white"></path></svg>